# xmcd
#
# Track frame offsets: 
#        150
#        22556
#        53955
#        73112
#        97715
#        116656
#        134805
#        165051
#        192407
#        217502
#        238461
#        252163
#        268335
#        285875
#        295906
#        320411
#
# Disc length: 4597 seconds
#
# Revision: 2
# Processed by: cddbd v1.5.2PL0 Copyright (c) Steve Scherf et al.
# Submitted via: ExactAudioCopy v0.95a5
#
DISCID=e211f310
DTITLE=Margriet Eshuijs - In Concert
DYEAR=2005
DGENRE=Pop
TTITLE0=Flowerchild
TTITLE1=Black pearl
TTITLE2=Stay
TTITLE3=Orchids have to grow in the dark
TTITLE4=Fire in the summer rain
TTITLE5=How to deal with you
TTITLE6=Time
TTITLE7=God is asleep
TTITLE8=White horses in the snow
TTITLE9=The dancer
TTITLE10=Trouble in paradise
TTITLE11=Find it in your heart
TTITLE12=Key West Blues
TTITLE13=After the sunset
TTITLE14=On and on
TTITLE15=House for sale
EXTD=
EXTT0=
EXTT1=
EXTT2=
EXTT3=
EXTT4=
EXTT5=
EXTT6=
EXTT7=
EXTT8=
EXTT9=
EXTT10=
EXTT11=
EXTT12=
EXTT13=
EXTT14=
EXTT15=
PLAYORDER=
